<?xml version="1.0" encoding="UTF-8"?>
<svg id="Layer_1" data-name="Layer 1" xmlns="http://www.w3.org/2000/svg" viewBox="0 0 755.25 136.4">
  <g id="Layer_2" data-name="Layer 2">
    <g id="color2">
      <path d="M603.93,45.09c-3.87,.22-7.98,3.59-7.62,8.7,.29,4.11,3.7,7.86,7.54,7.82,4.43-.04,7.77-3.63,7.79-8.25,.03-5.63-4.27-8.3-7.71-8.28h0Z" fill="#e9ac49"/>
      <path d="M637.01,54.06c-4.35,.05-7.63,3.53-7.63,8.07,0,4.93,3.03,8.15,7.63,8.15,4.74,.32,7.71-3.41,7.91-8.54,.16-3.93-3.87-7.72-7.91-7.68Z" fill="#e9ac49"/>
      <path d="M530.26,65.41c-6.3-4.14-13.04-6.51-20.73-4.63-3.19,.78-5.97,3.39-5.99,5.87-.02,2.69,2.35,5.16,5.63,5.77,.88,.16,1.83,.16,2.73,.06,7.63-.92,15.11-3.13,22.91-2.57,.06,0,.12-.08,.42-.3-1.23-2.05-3.22-3.05-4.97-4.2Z" fill="#e9ac49"/>
      <path d="M644.28,38.72c0-6.79-5.5-11.5-10.68-11.05-6.08-.06-10.56,4.58-10.64,11.01-.08,6.36,4.45,11.33,10.37,11.38,6.28,.05,10.96-4.72,10.95-11.35h0Z" fill="#e9ac49"/>
      <path d="M530.61,4.12c-7.88,1.67-12.21,7.42-11.95,14.96,.12,3.49,1.61,6.36,4.91,7.79,3.58,1.56,7.35,1.99,10.65-.59,2.52-1.97,4.05-4.76,3.57-8.07-.45-3.05-3.15-3.44-6.41-3.85,4.35-1.76,6.58-1.26,8.68,1.36,1.81,2.27,1.01,4.61,.11,6.85-2.56,6.37-7.1,11.58-10.49,17.47-6.47,11.25-2.53,19.45,6.59,25.89,.39,.28,.84,.73,1.3,.3,.48-.44,.05-.89-.24-1.29-6-8.47-4.84-17.44,1.63-25.41,3.27-4.03,6.4-8.28,8.6-13.06,1.91-4.15,3.13-8.39,1.69-13.01-2.64-8.47-10.09-11.15-18.64-9.34Z" fill="#e9ac49"/>
    </g>
  </g>
  <g id="layer1">
    <g id="color1">
      <path d="M743.82,96.06c-1.14-.77-2.42-.99-3.77-.95-.22,.35-.45,.35-.68,.01-.77,.08-1.55,.16-2.33,.24-.38,.56-.84,.42-1.32,.15-1.06,.12-2.12,.24-3.18,.36-.32,.57-.77,.54-1.27,.29-.4,.06-.8,.12-1.2,.18-.42,.54-.89,.43-1.37,.12-1.55,.21-3.1,.41-4.66,.62-.2,.36-.44,.33-.72,.09-16.15,1.79-32.35,2.82-48.6,2.82-22.01,0-43.92-1.68-65.73-4.55-10.97-1.45-21.89-3.28-32.59-6.18-5.21-1.41-10.3-3.21-15.49-4.71-1.45-.42-3.59-1.21-4.27,.58-.65,1.72,1.5,2.51,2.79,3.27,7.25,4.29,15.02,7.46,22.99,10.09,18.92,6.25,38.46,9.31,58.26,10.78,20.88,1.54,41.77,1.46,62.63-.56,1.09-.11,2.24-.36,3.52,.15-.86,1.4-2.14,1.85-3.26,2.47-12.01,6.67-25.21,8.8-38.63,9.75-10.39,.73-20.79,.44-31.19-.45-20.89-1.79-41.13-5.8-59.87-15.78-10.6-5.64-20.6-11.9-27.55-22.05-1.04-1.51-2.38-2.79-4-3.69-.63-.35-1.27-.82-2.06-.19-.72,.57-.68,1.3-.58,2.04,.19,1.34,.8,2.52,1.5,3.66,8.45,13.78,19.86,24.3,34.42,31.38,10.53,5.12,21.59,8.57,32.99,11.15,13.7,3.09,27.55,4.89,41.56,4.97,14.27,.08,28.38-1.56,42.26-5.1,13.14-3.34,25.68-8.05,37.34-15.01,.04-.47,.3-.67,.76-.58,.24-.14,.49-.28,.73-.42,.02-.49,.28-.65,.73-.56,2.66-1.68,4.93-3.83,7.29-5.88-.04-.5,.22-.69,.69-.64,1.44-1.46,2.98-2.85,3.92-4.73-.17-.43-.07-.73,.42-.83,.25-.53,.31-1.06,.05-1.6-.48-.02-.65-.28-.56-.73l.03,.02Z" fill="#b4260b"/>
      <path d="M744.46,57.92c-13.1-9.4-28.24-13.9-43.5-18.1-4.1-1.13-8.26-2.01-13.11-3.18,5.6-3.04,10.52-5.79,15.51-8.41,9.13-4.79,18.31-9.5,28.17-12.67,2.55-.82,5.17-1.38,7.86-.95,2.33,.37,2.83,1.5,1.72,3.45-.81,1.41-2.16,2.28-3.26,3.41-1.15,1.19-2.08,2.58-.97,4.22,1.08,1.58,2.7,1.48,4.26,.77,5.88-2.67,10.46-6.8,13.25-12.64,2.01-4.23,.4-8.49-3.71-10.89-3.81-2.25-8.01-2.65-12.29-2.5-7.41,.26-14.43,2.26-21.29,4.93-13.29,5.18-25.72,12.07-37.96,19.3-7.79,4.6-15.5,9.35-23,14.59,.55,.9,1.2,.77,1.73,.86,6.89,1.17,13.74,2.56,20.53,4.23,15.11,3.72,30.02,8.1,44.42,14.04,5.06,2.09,10.18,4.21,14.14,8.21,3.61,3.65,2.81,7.16-1.96,9.06-3.59,1.43-7.38,2.04-11.17,2.54-11.24,1.49-22.56,1.95-33.87,2.32-23.24,.76-46.45,.68-69.6-2.14-16.62-2.02-33.14-4.49-49.23-9.27-5.1-1.52-10.18-3.19-14.28-6.82-2.87-2.54-3.41-5.32-1.64-8.72,.65-1.24,1.52-2.37,2.29-3.56,1.37-2.13,.87-3.99-1.4-5.12-1.44-.72-2.88-.66-4.33,.02-2.75,1.27-5.19,2.99-7.3,5.14-4.53,4.61-5.23,9.98-1.76,15.45,4.66,7.34,11.64,11.81,19.65,14.59,16.91,5.86,34.52,8.63,52.18,10.95,14.05,1.85,28.2,2.39,42.35,2.96,22.9,.93,45.79,1.52,68.56-1.94,7.26-1.1,14.4-2.72,20.93-6.28,9.05-4.92,10.87-13.55,4.56-21.69-1.84-2.38-4.03-4.42-6.48-6.18v.02Z" fill="#b4260b"/>
    </g>
  </g>
  <g>
    <path d="M43.56,15.4c11,0,19.14,3.41,26.62,10.23,.99,.88,.99,2.2,.11,3.08l-8.58,8.91c-.77,.77-1.98,.77-2.75,0-4.07-3.63-9.46-5.61-14.85-5.61-12.43,0-21.56,10.34-21.56,22.66s9.24,22.33,21.67,22.33c5.17,0,10.78-1.87,14.74-5.28,.77-.66,2.2-.66,2.86,.11l8.58,9.13c.77,.77,.66,2.2-.11,2.97-7.48,7.26-16.94,10.67-26.73,10.67-22,0-39.71-17.49-39.71-39.49S21.56,15.4,43.56,15.4Z" fill="#b4260b"/>
    <path d="M76.34,51.59c0-1.21,.99-2.09,2.09-2.09h11.77c1.1,0,2.09,.88,2.09,2.09v20.35c0,4.51,2.53,8.47,7.04,8.47s6.6-4.07,6.6-7.81v-21.01c0-1.76,1.21-2.09,2.31-2.09h11.22c1.1,0,2.09,.88,2.09,2.09v39.82c0,1.1-.99,2.09-2.09,2.09h-5.17c-.99,0-1.76-.77-2.09-1.54l-1.65-4.07c-2.86,2.75-6.38,6.71-14.85,6.71-13.09,0-19.36-10.56-19.36-23.1v-19.91Z" fill="#b4260b"/>
    <path d="M133.43,51.59c0-1.21,.99-2.09,2.09-2.09h5.17c1.21,0,1.65,.66,1.98,1.32l1.98,4.84c2.2-3.19,6.27-7.26,11.99-7.26,6.05,0,10.34,2.2,8.8,4.73l-5.39,8.8c-.44,.77-1.21,1.43-2.42,.99-.55-.22-1.65-.55-2.64-.55-3.3,0-5.83,2.53-5.83,6.27v22.77c0,1.32-.66,2.09-2.42,2.09h-11.22c-1.1,0-2.09-.99-2.09-2.09V51.59Z" fill="#b4260b"/>
    <path d="M171.38,51.59c0-1.21,.99-2.09,2.09-2.09h5.17c1.21,0,1.65,.66,1.98,1.32l1.98,4.84c2.2-3.19,6.27-7.26,11.99-7.26,6.05,0,10.34,2.2,8.8,4.73l-5.39,8.8c-.44,.77-1.21,1.43-2.42,.99-.55-.22-1.65-.55-2.64-.55-3.3,0-5.83,2.53-5.83,6.27v22.77c0,1.32-.66,2.09-2.42,2.09h-11.22c-1.1,0-2.09-.99-2.09-2.09V51.59Z" fill="#b4260b"/>
    <path d="M206.36,52.36c-.66-1.43,.22-2.86,1.87-2.86h12.54c.88,0,1.54,.55,1.87,1.21l8.47,20.46h.22l8.69-20.46c.22-.66,.99-1.21,1.87-1.21h12.43c1.65,0,2.64,1.43,1.87,2.86l-33.66,72.82c-.33,.66-.99,1.32-1.87,1.32h-12.32c-1.65,0-2.64-1.43-1.87-2.97l16.39-34.54-16.5-36.63Z" fill="#b4260b"/>
    <path d="M300.08,15.4c11,0,19.14,3.41,26.62,10.23,.99,.88,.99,2.2,.11,3.08l-8.58,8.91c-.77,.77-1.98,.77-2.75,0-4.07-3.63-9.46-5.61-14.85-5.61-12.43,0-21.56,10.34-21.56,22.66s9.24,22.33,21.67,22.33c5.17,0,10.78-1.87,14.74-5.28,.77-.66,2.2-.66,2.86,.11l8.58,9.13c.77,.77,.66,2.2-.11,2.97-7.48,7.26-16.94,10.67-26.73,10.67-22,0-39.71-17.49-39.71-39.49s17.71-39.71,39.71-39.71Z" fill="#b4260b"/>
    <path d="M335.06,18.59c0-1.1,.99-2.09,2.09-2.09h12.1c1.1,0,2.09,.99,2.09,2.09V91.41c0,1.1-.99,2.09-2.09,2.09h-12.1c-1.1,0-2.09-.99-2.09-2.09V18.59Z" fill="#b4260b"/>
    <path d="M362.23,51.59c0-1.21,.99-2.09,2.09-2.09h11.77c1.1,0,2.09,.88,2.09,2.09v20.35c0,4.51,2.53,8.47,7.04,8.47s6.6-4.07,6.6-7.81v-21.01c0-1.76,1.21-2.09,2.31-2.09h11.22c1.1,0,2.09,.88,2.09,2.09v39.82c0,1.1-.99,2.09-2.09,2.09h-5.17c-.99,0-1.76-.77-2.09-1.54l-1.65-4.07c-2.86,2.75-6.38,6.71-14.85,6.71-13.09,0-19.36-10.56-19.36-23.1v-19.91Z" fill="#b4260b"/>
    <path d="M419.32,18.59c0-1.1,.99-2.09,2.09-2.09h12.21c1.1,0,2.09,.99,2.09,2.09v31.9c1.32-.77,5.39-2.09,9.13-2.09,11.77,0,21.89,7.59,21.89,23.1,0,12.65-9.35,23.1-21.78,23.1-9.68,0-14.74-6.93-14.74-6.93l-1.32,3.63c-.44,1.21-1.21,2.2-2.31,2.2h-5.17c-1.1,0-2.09-.99-2.09-2.09V18.59Zm23.43,61.82c5.06,0,8.91-3.96,8.91-9.02s-3.85-8.8-8.91-8.8-8.8,3.85-8.8,8.8,3.74,9.02,8.8,9.02Z" fill="#b4260b"/>
  </g>
</svg>