<?xml version="1.0" encoding="utf-8"?>
<!-- Generator: Adobe Illustrator 26.5.2, SVG Export Plug-In . SVG Version: 6.00 Build 0)  -->
<svg version="1.1" id="Layer_1" xmlns="http://www.w3.org/2000/svg" xmlns:xlink="http://www.w3.org/1999/xlink" x="0px" y="0px"
	 width="836.2px" height="198.7px" viewBox="0 0 836.2 198.7" style="enable-background:new 0 0 836.2 198.7;" xml:space="preserve"
	>
<style type="text/css">
	.st0{fill:#B4260B;}
	.st1{font-family:'BrandonGrotesque-Black';}
	.st2{font-size:110px;}
</style>
<g id="Layer_2_00000020368982889904773340000007250923061923717544_">
	<g>
		<g id="color2_00000046312779975714840070000003871352105698581672_">
			<path class="st0" d="M637.2,75.6c-3.9,0.2-8,3.6-7.6,8.7c0.3,4.1,3.7,7.9,7.5,7.8c4.4,0,7.8-3.6,7.8-8.2
				C644.9,78.2,640.6,75.6,637.2,75.6L637.2,75.6z"/>
			<path class="st0" d="M670.3,84.6c-4.4,0-7.6,3.5-7.6,8.1c0,4.9,3,8.1,7.6,8.1c4.7,0.3,7.7-3.4,7.9-8.5
				C678.3,88.3,674.3,84.5,670.3,84.6z"/>
			<path class="st0" d="M563.5,95.9c-6.3-4.1-13-6.5-20.7-4.6c-3.2,0.8-6,3.4-6,5.9c0,2.7,2.4,5.2,5.6,5.8c0.9,0.2,1.8,0.2,2.7,0.1
				c7.6-0.9,15.1-3.1,22.9-2.6c0.1,0,0.1-0.1,0.4-0.3C567.3,98.1,565.3,97.1,563.5,95.9z"/>
			<path class="st0" d="M677.5,69.2c0-6.8-5.5-11.5-10.7-11c-6.1-0.1-10.6,4.6-10.6,11c-0.1,6.4,4.5,11.3,10.4,11.4
				C672.9,80.6,677.5,75.8,677.5,69.2L677.5,69.2z"/>
			<path class="st0" d="M563.9,34.6c-7.9,1.7-12.2,7.4-12,15c0.1,3.5,1.6,6.4,4.9,7.8c3.6,1.6,7.3,2,10.6-0.6c2.5-2,4-4.8,3.6-8.1
				c-0.5-3-3.1-3.4-6.4-3.8c4.3-1.8,6.6-1.3,8.7,1.4c1.8,2.3,1,4.6,0.1,6.8c-2.6,6.4-7.1,11.6-10.5,17.5
				c-6.5,11.2-2.5,19.5,6.6,25.9c0.4,0.3,0.8,0.7,1.3,0.3c0.5-0.4,0-0.9-0.2-1.3c-6-8.5-4.8-17.4,1.6-25.4c3.3-4,6.4-8.3,8.6-13.1
				c1.9-4.1,3.1-8.4,1.7-13C579.9,35.5,572.4,32.8,563.9,34.6z"/>
		</g>
	</g>
</g>
<g id="layer1">
	<g id="color1">
		<path class="st0" d="M777.1,126.6c-1.1-0.8-2.4-1-3.8-0.9c-0.2,0.3-0.5,0.3-0.7,0c-0.8,0.1-1.5,0.2-2.3,0.2
			c-0.4,0.6-0.8,0.4-1.3,0.2c-1.1,0.1-2.1,0.2-3.2,0.4c-0.3,0.6-0.8,0.5-1.3,0.3c-0.4,0.1-0.8,0.1-1.2,0.2c-0.4,0.5-0.9,0.4-1.4,0.1
			c-1.6,0.2-3.1,0.4-4.7,0.6c-0.2,0.4-0.4,0.3-0.7,0.1c-16.2,1.8-32.4,2.8-48.6,2.8c-22,0-43.9-1.7-65.7-4.6
			c-11-1.4-21.9-3.3-32.6-6.2c-5.2-1.4-10.3-3.2-15.5-4.7c-1.5-0.4-3.6-1.2-4.3,0.6c-0.6,1.7,1.5,2.5,2.8,3.3
			c7.2,4.3,15,7.5,23,10.1c18.9,6.2,38.5,9.3,58.3,10.8c20.9,1.5,41.8,1.5,62.6-0.6c1.1-0.1,2.2-0.4,3.5,0.2
			c-0.9,1.4-2.1,1.8-3.3,2.5c-12,6.7-25.2,8.8-38.6,9.8c-10.4,0.7-20.8,0.4-31.2-0.4c-20.9-1.8-41.1-5.8-59.9-15.8
			c-10.6-5.6-20.6-11.9-27.6-22c-1-1.5-2.4-2.8-4-3.7c-0.6-0.3-1.3-0.8-2.1-0.2c-0.7,0.6-0.7,1.3-0.6,2c0.2,1.3,0.8,2.5,1.5,3.7
			c8.4,13.8,19.9,24.3,34.4,31.4c10.5,5.1,21.6,8.6,33,11.2c13.7,3.1,27.5,4.9,41.6,5c14.3,0.1,28.4-1.6,42.3-5.1
			c13.1-3.3,25.7-8.1,37.3-15c0-0.5,0.3-0.7,0.8-0.6c0.2-0.1,0.5-0.3,0.7-0.4c0-0.5,0.3-0.7,0.7-0.6c2.7-1.7,4.9-3.8,7.3-5.9
			c0-0.5,0.2-0.7,0.7-0.6c1.4-1.5,3-2.8,3.9-4.7c-0.2-0.4-0.1-0.7,0.4-0.8c0.2-0.5,0.3-1.1,0.1-1.6C777.1,127.3,777,127,777.1,126.6
			L777.1,126.6z"/>
		<path class="st0" d="M777.7,88.4c-13.1-9.4-28.2-13.9-43.5-18.1c-4.1-1.1-8.3-2-13.1-3.2c5.6-3,10.5-5.8,15.5-8.4
			c9.1-4.8,18.3-9.5,28.2-12.7c2.5-0.8,5.2-1.4,7.9-0.9c2.3,0.4,2.8,1.5,1.7,3.4c-0.8,1.4-2.2,2.3-3.3,3.4c-1.1,1.2-2.1,2.6-1,4.2
			c1.1,1.6,2.7,1.5,4.3,0.8c5.9-2.7,10.5-6.8,13.2-12.6c2-4.2,0.4-8.5-3.7-10.9c-3.8-2.2-8-2.6-12.3-2.5c-7.4,0.3-14.4,2.3-21.3,4.9
			c-13.3,5.2-25.7,12.1-38,19.3c-7.8,4.6-15.5,9.4-23,14.6c0.5,0.9,1.2,0.8,1.7,0.9c6.9,1.2,13.7,2.6,20.5,4.2
			c15.1,3.7,30,8.1,44.4,14C761,90.9,766.1,93,770,97c3.6,3.7,2.8,7.2-2,9.1c-3.6,1.4-7.4,2-11.2,2.5c-11.2,1.5-22.6,1.9-33.9,2.3
			c-23.2,0.8-46.4,0.7-69.6-2.1c-16.6-2-33.1-4.5-49.2-9.3c-5.1-1.5-10.2-3.2-14.3-6.8c-2.9-2.5-3.4-5.3-1.6-8.7
			c0.7-1.2,1.5-2.4,2.3-3.6c1.4-2.1,0.9-4-1.4-5.1c-1.4-0.7-2.9-0.7-4.3,0c-2.8,1.3-5.2,3-7.3,5.1c-4.5,4.6-5.2,10-1.8,15.5
			c4.9,7.4,11.9,11.9,19.9,14.7c16.9,5.9,34.5,8.6,52.2,10.9c14,1.8,28.2,2.4,42.4,3c22.9,0.9,45.8,1.5,68.6-1.9
			c7.3-1.1,14.4-2.7,20.9-6.3c9-4.9,10.9-13.6,4.6-21.7C782.4,92.2,780.2,90.2,777.7,88.4L777.7,88.4z"/>
	</g>
</g>
<text transform="matrix(1 0 0 1 33.2735 124.0001)" class="st0 st1 st2">CurryClub</text>
</svg>
